<mxfile host="app.diagrams.net" modified="2024-02-02T19:13:39.632Z" agent="Mozilla/5.0 (X11; Ubuntu; Linux x86_64; rv:122.0) Gecko/20100101 Firefox/122.0" etag="JY01wSucw3AeUR3eutgR" version="23.0.2" type="github">
  <diagram name="Page-1" id="PG30JP5p8s97G3D0laf8">
    <mxGraphModel dx="941" dy="548" grid="1" gridSize="10" guides="1" tooltips="1" connect="1" arrows="1" fold="1" page="1" pageScale="1" pageWidth="850" pageHeight="1100" math="0" shadow="0">
      <root>
        <mxCell id="0" />
        <mxCell id="1" parent="0" />
        <mxCell id="06C9EIyaRwlw6r8d1HkZ-3" value="&lt;font size=&quot;1&quot;&gt;&lt;u&gt;&lt;font style=&quot;font-size: 17px;&quot;&gt;userID&lt;/font&gt;&lt;/u&gt;&lt;/font&gt;" style="rounded=0;whiteSpace=wrap;html=1;" parent="1" vertex="1">
          <mxGeometry x="40" y="80" width="120" height="40" as="geometry" />
        </mxCell>
        <mxCell id="06C9EIyaRwlw6r8d1HkZ-4" value="&lt;font style=&quot;font-size: 17px;&quot;&gt;username&lt;/font&gt;" style="rounded=0;whiteSpace=wrap;html=1;" parent="1" vertex="1">
          <mxGeometry x="160" y="80" width="120" height="40" as="geometry" />
        </mxCell>
        <mxCell id="06C9EIyaRwlw6r8d1HkZ-5" value="&lt;font style=&quot;font-size: 17px;&quot;&gt;firstName&lt;/font&gt;" style="rounded=0;whiteSpace=wrap;html=1;" parent="1" vertex="1">
          <mxGeometry x="280" y="80" width="120" height="40" as="geometry" />
        </mxCell>
        <mxCell id="06C9EIyaRwlw6r8d1HkZ-6" value="&lt;font style=&quot;font-size: 17px;&quot;&gt;password&lt;/font&gt;" style="rounded=0;whiteSpace=wrap;html=1;" parent="1" vertex="1">
          <mxGeometry x="640" y="80" width="120" height="40" as="geometry" />
        </mxCell>
        <mxCell id="06C9EIyaRwlw6r8d1HkZ-7" value="&lt;font style=&quot;font-size: 17px;&quot;&gt;lastName&lt;/font&gt;" style="rounded=0;whiteSpace=wrap;html=1;" parent="1" vertex="1">
          <mxGeometry x="400" y="80" width="120" height="40" as="geometry" />
        </mxCell>
        <mxCell id="06C9EIyaRwlw6r8d1HkZ-8" value="&lt;font style=&quot;font-size: 17px;&quot;&gt;email&lt;/font&gt;" style="rounded=0;whiteSpace=wrap;html=1;" parent="1" vertex="1">
          <mxGeometry x="520" y="80" width="120" height="40" as="geometry" />
        </mxCell>
        <mxCell id="06C9EIyaRwlw6r8d1HkZ-9" value="&lt;font style=&quot;font-size: 17px;&quot;&gt;userType&lt;/font&gt;" style="rounded=0;whiteSpace=wrap;html=1;" parent="1" vertex="1">
          <mxGeometry x="760" y="80" width="120" height="40" as="geometry" />
        </mxCell>
        <mxCell id="06C9EIyaRwlw6r8d1HkZ-10" value="&lt;font style=&quot;font-size: 17px;&quot;&gt;User&lt;/font&gt;" style="text;html=1;align=center;verticalAlign=middle;resizable=0;points=[];autosize=1;strokeColor=none;fillColor=none;" parent="1" vertex="1">
          <mxGeometry x="40" y="48" width="60" height="30" as="geometry" />
        </mxCell>
        <mxCell id="06C9EIyaRwlw6r8d1HkZ-11" value="&lt;font size=&quot;1&quot;&gt;&lt;u style=&quot;font-size: 17px;&quot;&gt;messageID&lt;/u&gt;&lt;/font&gt;" style="rounded=0;whiteSpace=wrap;html=1;" parent="1" vertex="1">
          <mxGeometry x="40" y="1000" width="120" height="40" as="geometry" />
        </mxCell>
        <mxCell id="06C9EIyaRwlw6r8d1HkZ-12" value="&lt;font style=&quot;font-size: 17px;&quot;&gt;content&lt;/font&gt;" style="rounded=0;whiteSpace=wrap;html=1;" parent="1" vertex="1">
          <mxGeometry x="280" y="1000" width="120" height="40" as="geometry" />
        </mxCell>
        <mxCell id="06C9EIyaRwlw6r8d1HkZ-13" value="&lt;font style=&quot;font-size: 17px;&quot;&gt;dateandtime&lt;/font&gt;" style="rounded=0;whiteSpace=wrap;html=1;" parent="1" vertex="1">
          <mxGeometry x="400" y="1000" width="120" height="40" as="geometry" />
        </mxCell>
        <mxCell id="06C9EIyaRwlw6r8d1HkZ-31" style="edgeStyle=orthogonalEdgeStyle;rounded=0;orthogonalLoop=1;jettySize=auto;html=1;" parent="1" source="06C9EIyaRwlw6r8d1HkZ-16" target="06C9EIyaRwlw6r8d1HkZ-19" edge="1">
          <mxGeometry relative="1" as="geometry">
            <Array as="points">
              <mxPoint x="580" y="840" />
              <mxPoint x="100" y="840" />
            </Array>
          </mxGeometry>
        </mxCell>
        <mxCell id="06C9EIyaRwlw6r8d1HkZ-16" value="&lt;font style=&quot;font-size: 17px;&quot;&gt;chatID&lt;/font&gt;" style="rounded=0;whiteSpace=wrap;html=1;" parent="1" vertex="1">
          <mxGeometry x="520" y="1000" width="120" height="40" as="geometry" />
        </mxCell>
        <mxCell id="06C9EIyaRwlw6r8d1HkZ-17" value="&lt;font style=&quot;font-size: 17px;&quot;&gt;senderID&lt;/font&gt;" style="rounded=0;whiteSpace=wrap;html=1;" parent="1" vertex="1">
          <mxGeometry x="160" y="1000" width="120" height="40" as="geometry" />
        </mxCell>
        <mxCell id="06C9EIyaRwlw6r8d1HkZ-18" value="&lt;font style=&quot;font-size: 17px;&quot;&gt;Message&lt;/font&gt;" style="text;html=1;align=center;verticalAlign=middle;resizable=0;points=[];autosize=1;strokeColor=none;fillColor=none;" parent="1" vertex="1">
          <mxGeometry x="40" y="970" width="90" height="30" as="geometry" />
        </mxCell>
        <mxCell id="06C9EIyaRwlw6r8d1HkZ-19" value="&lt;font size=&quot;1&quot;&gt;&lt;u style=&quot;font-size: 17px;&quot;&gt;chatID&lt;/u&gt;&lt;/font&gt;" style="rounded=0;whiteSpace=wrap;html=1;" parent="1" vertex="1">
          <mxGeometry x="40" y="760" width="120" height="40" as="geometry" />
        </mxCell>
        <mxCell id="06C9EIyaRwlw6r8d1HkZ-20" value="&lt;font style=&quot;font-size: 17px;&quot;&gt;Chat&lt;/font&gt;" style="text;html=1;align=center;verticalAlign=middle;resizable=0;points=[];autosize=1;strokeColor=none;fillColor=none;" parent="1" vertex="1">
          <mxGeometry x="40" y="730" width="60" height="30" as="geometry" />
        </mxCell>
        <mxCell id="06C9EIyaRwlw6r8d1HkZ-21" value="&lt;font size=&quot;1&quot;&gt;&lt;u style=&quot;font-size: 17px;&quot;&gt;gameID&lt;/u&gt;&lt;/font&gt;" style="rounded=0;whiteSpace=wrap;html=1;" parent="1" vertex="1">
          <mxGeometry x="40" y="430" width="120" height="40" as="geometry" />
        </mxCell>
        <mxCell id="06C9EIyaRwlw6r8d1HkZ-22" value="&lt;font style=&quot;font-size: 17px;&quot;&gt;word&lt;/font&gt;" style="rounded=0;whiteSpace=wrap;html=1;" parent="1" vertex="1">
          <mxGeometry x="160" y="430" width="120" height="40" as="geometry" />
        </mxCell>
        <mxCell id="06C9EIyaRwlw6r8d1HkZ-23" value="&lt;font style=&quot;font-size: 17px;&quot;&gt;winnerID&lt;/font&gt;" style="rounded=0;whiteSpace=wrap;html=1;" parent="1" vertex="1">
          <mxGeometry x="280" y="430" width="120" height="40" as="geometry" />
        </mxCell>
        <mxCell id="06C9EIyaRwlw6r8d1HkZ-24" value="&lt;font style=&quot;font-size: 17px;&quot;&gt;Game&lt;/font&gt;" style="text;html=1;align=center;verticalAlign=middle;resizable=0;points=[];autosize=1;strokeColor=none;fillColor=none;" parent="1" vertex="1">
          <mxGeometry x="40" y="400" width="70" height="30" as="geometry" />
        </mxCell>
        <mxCell id="06C9EIyaRwlw6r8d1HkZ-26" value="&lt;font size=&quot;1&quot;&gt;&lt;u style=&quot;font-size: 17px;&quot;&gt;tournamentID&lt;/u&gt;&lt;/font&gt;" style="rounded=0;whiteSpace=wrap;html=1;" parent="1" vertex="1">
          <mxGeometry x="40" y="200" width="120" height="40" as="geometry" />
        </mxCell>
        <mxCell id="06C9EIyaRwlw6r8d1HkZ-30" style="rounded=0;orthogonalLoop=1;jettySize=auto;html=1;entryX=0;entryY=1;entryDx=0;entryDy=0;exitX=0.5;exitY=0;exitDx=0;exitDy=0;edgeStyle=orthogonalEdgeStyle;" parent="1" source="06C9EIyaRwlw6r8d1HkZ-27" target="06C9EIyaRwlw6r8d1HkZ-3" edge="1">
          <mxGeometry relative="1" as="geometry">
            <mxPoint x="50" y="130" as="targetPoint" />
          </mxGeometry>
        </mxCell>
        <mxCell id="06C9EIyaRwlw6r8d1HkZ-27" value="&lt;font style=&quot;font-size: 17px;&quot;&gt;adminID&lt;/font&gt;" style="rounded=0;whiteSpace=wrap;html=1;" parent="1" vertex="1">
          <mxGeometry x="280" y="200" width="120" height="40" as="geometry" />
        </mxCell>
        <mxCell id="06C9EIyaRwlw6r8d1HkZ-28" value="&lt;font style=&quot;font-size: 17px;&quot;&gt;winnerID&lt;/font&gt;" style="rounded=0;whiteSpace=wrap;html=1;" parent="1" vertex="1">
          <mxGeometry x="160" y="200" width="120" height="40" as="geometry" />
        </mxCell>
        <mxCell id="06C9EIyaRwlw6r8d1HkZ-29" value="&lt;font style=&quot;font-size: 17px;&quot;&gt;Tournament&lt;/font&gt;" style="text;html=1;align=center;verticalAlign=middle;resizable=0;points=[];autosize=1;strokeColor=none;fillColor=none;" parent="1" vertex="1">
          <mxGeometry x="40" y="170" width="110" height="30" as="geometry" />
        </mxCell>
        <mxCell id="06C9EIyaRwlw6r8d1HkZ-37" style="rounded=0;orthogonalLoop=1;jettySize=auto;html=1;exitX=0.5;exitY=0;exitDx=0;exitDy=0;entryX=0.5;entryY=1;entryDx=0;entryDy=0;jumpStyle=none;" parent="1" source="06C9EIyaRwlw6r8d1HkZ-32" target="06C9EIyaRwlw6r8d1HkZ-26" edge="1">
          <mxGeometry relative="1" as="geometry" />
        </mxCell>
        <mxCell id="06C9EIyaRwlw6r8d1HkZ-32" value="&lt;font size=&quot;1&quot;&gt;&lt;u style=&quot;font-size: 17px;&quot;&gt;tournamentID&lt;/u&gt;&lt;/font&gt;" style="rounded=0;whiteSpace=wrap;html=1;" parent="1" vertex="1">
          <mxGeometry x="40" y="320" width="120" height="40" as="geometry" />
        </mxCell>
        <mxCell id="06C9EIyaRwlw6r8d1HkZ-36" style="rounded=0;orthogonalLoop=1;jettySize=auto;html=1;entryX=0.25;entryY=1;entryDx=0;entryDy=0;edgeStyle=orthogonalEdgeStyle;exitX=1;exitY=0.5;exitDx=0;exitDy=0;" parent="1" source="06C9EIyaRwlw6r8d1HkZ-34" target="06C9EIyaRwlw6r8d1HkZ-3" edge="1">
          <mxGeometry relative="1" as="geometry">
            <mxPoint x="450" y="140" as="targetPoint" />
            <Array as="points">
              <mxPoint x="440" y="340" />
              <mxPoint x="440" y="160" />
              <mxPoint x="70" y="160" />
            </Array>
          </mxGeometry>
        </mxCell>
        <mxCell id="06C9EIyaRwlw6r8d1HkZ-34" value="&lt;u&gt;&lt;font style=&quot;font-size: 17px;&quot;&gt;playerID&lt;/font&gt;&lt;/u&gt;" style="rounded=0;whiteSpace=wrap;html=1;" parent="1" vertex="1">
          <mxGeometry x="160" y="320" width="120" height="40" as="geometry" />
        </mxCell>
        <mxCell id="06C9EIyaRwlw6r8d1HkZ-35" value="&lt;font style=&quot;font-size: 17px;&quot;&gt;TournamentPlayers&lt;/font&gt;" style="text;html=1;align=center;verticalAlign=middle;resizable=0;points=[];autosize=1;strokeColor=none;fillColor=none;" parent="1" vertex="1">
          <mxGeometry x="40" y="290" width="170" height="30" as="geometry" />
        </mxCell>
        <mxCell id="06C9EIyaRwlw6r8d1HkZ-43" style="edgeStyle=orthogonalEdgeStyle;rounded=0;orthogonalLoop=1;jettySize=auto;html=1;exitX=0.5;exitY=0;exitDx=0;exitDy=0;" parent="1" source="06C9EIyaRwlw6r8d1HkZ-38" target="06C9EIyaRwlw6r8d1HkZ-21" edge="1">
          <mxGeometry relative="1" as="geometry" />
        </mxCell>
        <mxCell id="06C9EIyaRwlw6r8d1HkZ-38" value="&lt;font size=&quot;1&quot;&gt;&lt;u style=&quot;font-size: 17px;&quot;&gt;gameID&lt;/u&gt;&lt;/font&gt;" style="rounded=0;whiteSpace=wrap;html=1;" parent="1" vertex="1">
          <mxGeometry x="40" y="520" width="120" height="40" as="geometry" />
        </mxCell>
        <mxCell id="06C9EIyaRwlw6r8d1HkZ-42" style="rounded=0;orthogonalLoop=1;jettySize=auto;html=1;entryX=0.5;entryY=1;entryDx=0;entryDy=0;edgeStyle=orthogonalEdgeStyle;exitX=1;exitY=0.5;exitDx=0;exitDy=0;" parent="1" source="06C9EIyaRwlw6r8d1HkZ-39" target="06C9EIyaRwlw6r8d1HkZ-3" edge="1">
          <mxGeometry relative="1" as="geometry">
            <mxPoint x="150" y="130" as="targetPoint" />
            <Array as="points">
              <mxPoint x="480" y="540" />
              <mxPoint x="480" y="160" />
              <mxPoint x="100" y="160" />
            </Array>
          </mxGeometry>
        </mxCell>
        <mxCell id="06C9EIyaRwlw6r8d1HkZ-39" value="&lt;u&gt;&lt;font style=&quot;font-size: 17px;&quot;&gt;playerID&lt;/font&gt;&lt;/u&gt;" style="rounded=0;whiteSpace=wrap;html=1;" parent="1" vertex="1">
          <mxGeometry x="160" y="520" width="120" height="40" as="geometry" />
        </mxCell>
        <mxCell id="06C9EIyaRwlw6r8d1HkZ-41" value="&lt;div&gt;&lt;font style=&quot;font-size: 17px;&quot;&gt;GamePlayers&lt;/font&gt;&lt;/div&gt;" style="text;html=1;align=center;verticalAlign=middle;resizable=0;points=[];autosize=1;strokeColor=none;fillColor=none;" parent="1" vertex="1">
          <mxGeometry x="40" y="490" width="130" height="30" as="geometry" />
        </mxCell>
        <mxCell id="06C9EIyaRwlw6r8d1HkZ-47" style="edgeStyle=orthogonalEdgeStyle;rounded=0;orthogonalLoop=1;jettySize=auto;html=1;exitX=0.5;exitY=0;exitDx=0;exitDy=0;entryX=0.25;entryY=1;entryDx=0;entryDy=0;" parent="1" source="06C9EIyaRwlw6r8d1HkZ-44" target="06C9EIyaRwlw6r8d1HkZ-19" edge="1">
          <mxGeometry relative="1" as="geometry" />
        </mxCell>
        <mxCell id="06C9EIyaRwlw6r8d1HkZ-44" value="&lt;font size=&quot;1&quot;&gt;&lt;u style=&quot;font-size: 17px;&quot;&gt;chatID&lt;/u&gt;&lt;/font&gt;" style="rounded=0;whiteSpace=wrap;html=1;" parent="1" vertex="1">
          <mxGeometry x="40" y="880" width="120" height="40" as="geometry" />
        </mxCell>
        <mxCell id="06C9EIyaRwlw6r8d1HkZ-45" value="&lt;font style=&quot;font-size: 17px;&quot;&gt;PlayerChats&lt;/font&gt;" style="text;html=1;align=center;verticalAlign=middle;resizable=0;points=[];autosize=1;strokeColor=none;fillColor=none;" parent="1" vertex="1">
          <mxGeometry x="40" y="850" width="110" height="30" as="geometry" />
        </mxCell>
        <mxCell id="06C9EIyaRwlw6r8d1HkZ-48" style="rounded=0;orthogonalLoop=1;jettySize=auto;html=1;exitX=1;exitY=0.5;exitDx=0;exitDy=0;entryX=0.75;entryY=1;entryDx=0;entryDy=0;edgeStyle=orthogonalEdgeStyle;" parent="1" source="06C9EIyaRwlw6r8d1HkZ-46" target="06C9EIyaRwlw6r8d1HkZ-3" edge="1">
          <mxGeometry relative="1" as="geometry">
            <Array as="points">
              <mxPoint x="520" y="900" />
              <mxPoint x="520" y="160" />
              <mxPoint x="130" y="160" />
            </Array>
          </mxGeometry>
        </mxCell>
        <mxCell id="06C9EIyaRwlw6r8d1HkZ-46" value="&lt;font size=&quot;1&quot;&gt;&lt;u style=&quot;font-size: 17px;&quot;&gt;playerID&lt;/u&gt;&lt;/font&gt;" style="rounded=0;whiteSpace=wrap;html=1;" parent="1" vertex="1">
          <mxGeometry x="160" y="880" width="120" height="40" as="geometry" />
        </mxCell>
        <mxCell id="5C8FWRM4OA52WeaFdKwB-5" style="edgeStyle=orthogonalEdgeStyle;rounded=0;orthogonalLoop=1;jettySize=auto;html=1;exitX=0.5;exitY=0;exitDx=0;exitDy=0;entryX=0.5;entryY=1;entryDx=0;entryDy=0;" edge="1" parent="1" source="5C8FWRM4OA52WeaFdKwB-1" target="06C9EIyaRwlw6r8d1HkZ-32">
          <mxGeometry relative="1" as="geometry">
            <Array as="points">
              <mxPoint x="100" y="630" />
              <mxPoint x="430" y="630" />
              <mxPoint x="430" y="380" />
              <mxPoint x="100" y="380" />
            </Array>
          </mxGeometry>
        </mxCell>
        <mxCell id="5C8FWRM4OA52WeaFdKwB-1" value="&lt;font size=&quot;1&quot;&gt;&lt;u style=&quot;font-size: 17px;&quot;&gt;tournamentID&lt;/u&gt;&lt;/font&gt;" style="rounded=0;whiteSpace=wrap;html=1;" vertex="1" parent="1">
          <mxGeometry x="40" y="640" width="120" height="40" as="geometry" />
        </mxCell>
        <mxCell id="5C8FWRM4OA52WeaFdKwB-2" value="&lt;u&gt;&lt;font style=&quot;font-size: 17px;&quot;&gt;gameID&lt;/font&gt;&lt;/u&gt;" style="rounded=0;whiteSpace=wrap;html=1;" vertex="1" parent="1">
          <mxGeometry x="160" y="640" width="120" height="40" as="geometry" />
        </mxCell>
        <mxCell id="5C8FWRM4OA52WeaFdKwB-3" value="&lt;font style=&quot;font-size: 17px;&quot;&gt;TournamentGames&lt;/font&gt;" style="text;html=1;align=center;verticalAlign=middle;resizable=0;points=[];autosize=1;strokeColor=none;fillColor=none;" vertex="1" parent="1">
          <mxGeometry x="40" y="600" width="170" height="30" as="geometry" />
        </mxCell>
        <mxCell id="5C8FWRM4OA52WeaFdKwB-4" value="&lt;font style=&quot;font-size: 17px;&quot;&gt;stage&lt;/font&gt;" style="rounded=0;whiteSpace=wrap;html=1;" vertex="1" parent="1">
          <mxGeometry x="280" y="640" width="120" height="40" as="geometry" />
        </mxCell>
        <mxCell id="5C8FWRM4OA52WeaFdKwB-6" style="rounded=0;orthogonalLoop=1;jettySize=auto;html=1;exitX=0.5;exitY=0;exitDx=0;exitDy=0;entryX=0.75;entryY=1;entryDx=0;entryDy=0;edgeStyle=orthogonalEdgeStyle;" edge="1" parent="1" source="5C8FWRM4OA52WeaFdKwB-2" target="06C9EIyaRwlw6r8d1HkZ-21">
          <mxGeometry relative="1" as="geometry">
            <mxPoint x="130" y="480" as="targetPoint" />
            <Array as="points">
              <mxPoint x="220" y="630" />
              <mxPoint x="290" y="630" />
              <mxPoint x="290" y="490" />
              <mxPoint x="130" y="490" />
            </Array>
          </mxGeometry>
        </mxCell>
      </root>
    </mxGraphModel>
  </diagram>
</mxfile>
